<svg xmlns="http://www.w3.org/2000/svg" xmlns:xlink="http://www.w3.org/1999/xlink" version="1.1" width="1000" height="1000" viewBox="0 0 1000 1000" xml:space="preserve">
<desc>Created with Fabric.js 3.5.0</desc>
<defs>
</defs>
<rect x="0" y="0" width="100%" height="100%" fill="none"/>
<g transform="matrix(2.8127 0 0 2.656 280.0515 530.6081)" id="e3_circle">
<circle style="stroke: none; stroke-width: 1; stroke-dasharray: none; stroke-linecap: butt; stroke-dashoffset: 0; stroke-linejoin: miter; stroke-miterlimit: 4; is-custom-font: none; font-file-url: none; fill: rgb(255,200,2); fill-rule: nonzero; opacity: 1;" cx="0" cy="0" r="97.5333"/>
</g>
<g transform="matrix(2.9529 0 0 2.9529 511.9074 285.3221)" id="e1_circle">
<circle style="stroke: none; stroke-width: 1; stroke-dasharray: none; stroke-linecap: butt; stroke-dashoffset: 0; stroke-linejoin: miter; stroke-miterlimit: 4; is-custom-font: none; font-file-url: none; fill: rgb(255,200,2); fill-rule: nonzero; opacity: 1;" cx="0" cy="0" r="94.9355"/>
</g>
<g transform="matrix(2.8036 0 0 2.609 716.7219 521.9721)" id="e2_circle">
<circle style="stroke: none; stroke-width: 1; stroke-dasharray: none; stroke-linecap: butt; stroke-dashoffset: 0; stroke-linejoin: miter; stroke-miterlimit: 4; is-custom-font: none; font-file-url: none; fill: rgb(255,200,2); fill-rule: nonzero; opacity: 1;" cx="0" cy="0" r="99.4674"/>
</g>
<g transform="matrix(3.0709 0 0 2.5572 506.1479 577.6911)" id="e4_rectangle">
<rect style="stroke: none; stroke-width: 1; stroke-dasharray: none; stroke-linecap: butt; stroke-dashoffset: 0; stroke-linejoin: miter; stroke-miterlimit: 4; is-custom-font: none; font-file-url: none; fill: rgb(91,0,0); fill-rule: nonzero; opacity: 1;" x="-13.5222" y="-157.294" rx="4.49233" ry="4.49233" width="27.0444" height="314.588"/>
</g>
<g transform="matrix(1.2938 -1.5419 2.0417 1.7132 384.0573 563.3722)" id="e1_rectangle">
<rect style="stroke: none; stroke-width: 1; stroke-dasharray: none; stroke-linecap: butt; stroke-dashoffset: 0; stroke-linejoin: miter; stroke-miterlimit: 4; is-custom-font: none; font-file-url: none; fill: rgb(91,0,0); fill-rule: nonzero; opacity: 1;" x="-17.7326" y="-68.8375" rx="4.49233" ry="4.49233" width="35.4652" height="137.675"/>
</g>
<g transform="matrix(-1.3437 -1.6013 1.5658 -1.3139 636.4948 488.2112)" id="e2_rectangle">
<rect style="stroke: none; stroke-width: 1; stroke-dasharray: none; stroke-linecap: butt; stroke-dashoffset: 0; stroke-linejoin: miter; stroke-miterlimit: 4; is-custom-font: none; font-file-url: none; fill: rgb(91,0,0); fill-rule: nonzero; opacity: 1;" x="-17.3934" y="-75.157" rx="4.49233" ry="4.49233" width="34.7868" height="150.314"/>
</g>
</svg>